<svg width="1200" height="1113" viewBox="0 0 1200 1113" fill="none" xmlns="http://www.w3.org/2000/svg">
<path d="M193.905 -905L1100.61 -208.255L101.704 1091.66L-805 394.917L193.905 -905Z" fill="#E5E9FA"/>
<ellipse cx="750.985" cy="372.5" rx="32.9846" ry="33.5" fill="#2544D8"/>
<circle cx="751" cy="373" r="39" stroke="#2544D8" stroke-width="2" stroke-dasharray="4 4"/>
<path d="M732.804 359.56V358.54H735.228V367H734.076V359.56H732.804ZM745.947 358.54L743.175 363.796V367H742.071V363.796L739.287 358.54H740.559L742.635 362.632L744.699 358.54H745.947ZM753.108 363.34C753.108 363.572 753.092 363.772 753.06 363.94H747.792C747.816 364.692 748.028 365.256 748.428 365.632C748.836 366.008 749.332 366.196 749.916 366.196C750.444 366.196 750.884 366.064 751.236 365.8C751.596 365.528 751.816 365.168 751.896 364.72H753.06C752.98 365.176 752.8 365.584 752.52 365.944C752.248 366.304 751.892 366.584 751.452 366.784C751.012 366.984 750.516 367.084 749.964 367.084C749.332 367.084 748.772 366.948 748.284 366.676C747.796 366.404 747.412 366.016 747.132 365.512C746.86 365 746.724 364.4 746.724 363.712C746.724 363.024 746.86 362.424 747.132 361.912C747.412 361.4 747.796 361.008 748.284 360.736C748.772 360.464 749.332 360.328 749.964 360.328C750.604 360.328 751.16 360.464 751.632 360.736C752.112 361.008 752.476 361.372 752.724 361.828C752.98 362.284 753.108 362.788 753.108 363.34ZM752.004 363.412C752.028 362.924 751.948 362.516 751.764 362.188C751.58 361.86 751.328 361.616 751.008 361.456C750.688 361.296 750.34 361.216 749.964 361.216C749.364 361.216 748.86 361.404 748.452 361.78C748.044 362.148 747.824 362.692 747.792 363.412H752.004ZM757.236 360.328C757.876 360.328 758.416 360.488 758.856 360.808C759.304 361.128 759.616 361.556 759.792 362.092V360.412H760.884V367H759.792V365.32C759.616 365.856 759.304 366.284 758.856 366.604C758.416 366.924 757.876 367.084 757.236 367.084C756.652 367.084 756.132 366.948 755.676 366.676C755.22 366.404 754.86 366.016 754.596 365.512C754.34 365 754.212 364.4 754.212 363.712C754.212 363.024 754.34 362.424 754.596 361.912C754.86 361.4 755.22 361.008 755.676 360.736C756.132 360.464 756.652 360.328 757.236 360.328ZM757.548 361.3C756.876 361.3 756.336 361.516 755.928 361.948C755.528 362.372 755.328 362.96 755.328 363.712C755.328 364.464 755.528 365.056 755.928 365.488C756.336 365.912 756.876 366.124 757.548 366.124C757.98 366.124 758.364 366.024 758.7 365.824C759.044 365.624 759.312 365.344 759.504 364.984C759.696 364.616 759.792 364.192 759.792 363.712C759.792 363.232 759.696 362.808 759.504 362.44C759.312 362.072 759.044 361.792 758.7 361.6C758.364 361.4 757.98 361.3 757.548 361.3ZM763.714 361.744C763.93 361.288 764.246 360.936 764.662 360.688C765.078 360.432 765.574 360.304 766.15 360.304V361.492H765.814C765.198 361.492 764.694 361.652 764.302 361.972C763.91 362.284 763.714 362.804 763.714 363.532V367H762.622V360.412H763.714V361.744ZM732.76 376.54L730.612 385H729.28L727.324 378.088L725.368 385H724.036L721.876 376.54H723.088L724.708 383.728L726.712 376.54H727.924L729.928 383.704L731.56 376.54H732.76ZM736.74 378.328C737.38 378.328 737.92 378.488 738.36 378.808C738.808 379.128 739.12 379.556 739.296 380.092V378.412H740.388V385H739.296V383.32C739.12 383.856 738.808 384.284 738.36 384.604C737.92 384.924 737.38 385.084 736.74 385.084C736.156 385.084 735.636 384.948 735.18 384.676C734.724 384.404 734.364 384.016 734.1 383.512C733.844 383 733.716 382.4 733.716 381.712C733.716 381.024 733.844 380.424 734.1 379.912C734.364 379.4 734.724 379.008 735.18 378.736C735.636 378.464 736.156 378.328 736.74 378.328ZM737.052 379.3C736.38 379.3 735.84 379.516 735.432 379.948C735.032 380.372 734.832 380.96 734.832 381.712C734.832 382.464 735.032 383.056 735.432 383.488C735.84 383.912 736.38 384.124 737.052 384.124C737.484 384.124 737.868 384.024 738.204 383.824C738.548 383.624 738.816 383.344 739.008 382.984C739.2 382.616 739.296 382.192 739.296 381.712C739.296 381.232 739.2 380.808 739.008 380.44C738.816 380.072 738.548 379.792 738.204 379.6C737.868 379.4 737.484 379.3 737.052 379.3ZM743.218 379.744C743.434 379.288 743.75 378.936 744.166 378.688C744.582 378.432 745.078 378.304 745.654 378.304V379.492H745.318C744.702 379.492 744.198 379.652 743.806 379.972C743.414 380.284 743.218 380.804 743.218 381.532V385H742.126V378.412H743.218V379.744ZM747.823 379.744C748.039 379.288 748.355 378.936 748.771 378.688C749.187 378.432 749.683 378.304 750.259 378.304V379.492H749.923C749.307 379.492 748.803 379.652 748.411 379.972C748.019 380.284 747.823 380.804 747.823 381.532V385H746.731V378.412H747.823V379.744ZM754.037 378.328C754.677 378.328 755.217 378.488 755.657 378.808C756.105 379.128 756.417 379.556 756.593 380.092V378.412H757.685V385H756.593V383.32C756.417 383.856 756.105 384.284 755.657 384.604C755.217 384.924 754.677 385.084 754.037 385.084C753.453 385.084 752.933 384.948 752.477 384.676C752.021 384.404 751.661 384.016 751.397 383.512C751.141 383 751.013 382.4 751.013 381.712C751.013 381.024 751.141 380.424 751.397 379.912C751.661 379.4 752.021 379.008 752.477 378.736C752.933 378.464 753.453 378.328 754.037 378.328ZM754.349 379.3C753.677 379.3 753.137 379.516 752.729 379.948C752.329 380.372 752.129 380.96 752.129 381.712C752.129 382.464 752.329 383.056 752.729 383.488C753.137 383.912 753.677 384.124 754.349 384.124C754.781 384.124 755.165 384.024 755.501 383.824C755.845 383.624 756.113 383.344 756.305 382.984C756.497 382.616 756.593 382.192 756.593 381.712C756.593 381.232 756.497 380.808 756.305 380.44C756.113 380.072 755.845 379.792 755.501 379.6C755.165 379.4 754.781 379.3 754.349 379.3ZM762.891 378.304C763.659 378.304 764.279 378.552 764.751 379.048C765.223 379.536 765.459 380.244 765.459 381.172V385H764.367V381.268C764.367 380.612 764.199 380.108 763.863 379.756C763.527 379.404 763.071 379.228 762.495 379.228C761.895 379.228 761.415 379.424 761.055 379.816C760.695 380.2 760.515 380.764 760.515 381.508V385H759.423V378.412H760.515V379.972C760.683 379.436 760.979 379.024 761.403 378.736C761.835 378.448 762.331 378.304 762.891 378.304ZM770.278 384.04V385H769.462C768.79 385 768.286 384.84 767.95 384.52C767.622 384.2 767.458 383.664 767.458 382.912V379.36H766.474V378.412H767.458V376.768H768.562V378.412H770.266V379.36H768.562V382.936C768.562 383.36 768.638 383.652 768.79 383.812C768.95 383.964 769.222 384.04 769.606 384.04H770.278ZM772.066 378.412L774.202 383.596L776.182 378.412H777.394L773.482 388.12H772.246L773.614 384.892L770.842 378.412H772.066Z" fill="white"/>
</svg>
