<svg xmlns="http://www.w3.org/2000/svg" xmlns:xlink="http://www.w3.org/1999/xlink" width="500" zoomAndPan="magnify" viewBox="0 0 375 374.999991" height="500" preserveAspectRatio="xMidYMid meet" version="1.0"><defs><g/><clipPath id="cd49c850c0"><path d="M 129.078125 98.78125 L 212 98.78125 L 212 200 L 129.078125 200 Z M 129.078125 98.78125 " clip-rule="nonzero"/></clipPath><clipPath id="5715be77ab"><path d="M 164 116 L 246 116 L 246 215.78125 L 164 215.78125 Z M 164 116 " clip-rule="nonzero"/></clipPath><clipPath id="df2759d5ee"><path d="M 230.4375 98.78125 L 249.9375 98.78125 L 249.9375 118.28125 L 230.4375 118.28125 Z M 230.4375 98.78125 " clip-rule="nonzero"/></clipPath></defs><path fill="#fdfdfd" d="M 194.148438 153.910156 L 230.414062 101.199219 L 154.246094 161.546875 L 181.578125 161.546875 L 145.3125 214.257812 L 221.480469 153.910156 L 194.148438 153.910156 " fill-opacity="1" fill-rule="nonzero"/><g clip-path="url(#cd49c850c0)"><path fill="#fdfdfd" d="M 155.914062 189.808594 C 147.003906 181.179688 142.097656 169.597656 142.097656 157.199219 C 142.097656 132.167969 162.464844 111.800781 187.496094 111.800781 C 193.910156 111.800781 200.105469 113.109375 205.914062 115.691406 L 211.203125 103.792969 C 203.71875 100.464844 195.742188 98.78125 187.496094 98.78125 C 155.285156 98.78125 129.078125 124.988281 129.078125 157.199219 C 129.078125 173.15625 135.390625 188.058594 146.855469 199.164062 L 155.914062 189.808594 " fill-opacity="1" fill-rule="nonzero"/></g><g clip-path="url(#5715be77ab)"><path fill="#fdfdfd" d="M 219.828125 125.332031 C 228.253906 133.878906 232.894531 145.195312 232.894531 157.199219 C 232.894531 182.230469 212.527344 202.59375 187.496094 202.59375 C 181.308594 202.59375 175.316406 201.375 169.679688 198.96875 L 164.566406 210.941406 C 171.824219 214.042969 179.539062 215.617188 187.496094 215.617188 C 219.707031 215.617188 245.914062 189.410156 245.914062 157.199219 C 245.914062 141.753906 239.941406 127.1875 229.101562 116.191406 L 219.828125 125.332031 " fill-opacity="1" fill-rule="nonzero"/></g><g fill="#fdfdfd" fill-opacity="1"><g transform="translate(97.338866, 265.104182)"><g><path d="M 17.3125 0.40625 C 23.28125 0.40625 28.453125 -2.953125 31.015625 -7.875 L 25.28125 -10.84375 C 23.828125 -7.984375 20.875 -6.078125 17.3125 -6.078125 C 12.25 -6.078125 8.375 -9.984375 8.375 -15.046875 C 8.375 -20.125 12.25 -24.03125 17.3125 -24.03125 C 20.875 -24.03125 23.828125 -22.125 25.28125 -19.265625 L 31.015625 -22.234375 C 28.453125 -27.140625 23.28125 -30.5 17.3125 -30.5 C 8.78125 -30.5 1.859375 -23.578125 1.859375 -15.046875 C 1.859375 -6.515625 8.78125 0.40625 17.3125 0.40625 Z M 17.3125 0.40625 "/></g></g></g><g fill="#fdfdfd" fill-opacity="1"><g transform="translate(129.648923, 265.104182)"><g><path d="M 21.328125 -24.28125 L 21.328125 -30.109375 L 3.21875 -30.109375 L 3.21875 0 L 21.328125 0 L 21.328125 -5.828125 L 9.828125 -5.828125 L 9.828125 -12.140625 L 19.671875 -12.140625 L 19.671875 -17.96875 L 9.828125 -17.96875 L 9.828125 -24.28125 Z M 21.328125 -24.28125 "/></g></g></g><g fill="#fdfdfd" fill-opacity="1"><g transform="translate(153.02856, 265.104182)"><g><path d="M 21.328125 -24.28125 L 21.328125 -30.109375 L 3.21875 -30.109375 L 3.21875 0 L 21.328125 0 L 21.328125 -5.828125 L 9.828125 -5.828125 L 9.828125 -12.140625 L 19.671875 -12.140625 L 19.671875 -17.96875 L 9.828125 -17.96875 L 9.828125 -24.28125 Z M 21.328125 -24.28125 "/></g></g></g><g fill="#fdfdfd" fill-opacity="1"><g transform="translate(176.408198, 265.104182)"><g><path d="M 29.203125 -30.109375 L 19.625 -9.28125 L 10.140625 -30.109375 L 2.953125 -30.109375 L 2.953125 0 L 9.578125 0 L 9.578125 -17.96875 L 17.71875 0 L 21.53125 0 L 29.703125 -17.90625 L 29.703125 0 L 36.328125 0 L 36.328125 -30.109375 Z M 29.203125 -30.109375 "/></g></g></g><g fill="#fdfdfd" fill-opacity="1"><g transform="translate(215.692009, 265.104182)"><g><path d="M 21.375 0 L 28.453125 0 L 17.609375 -30.109375 L 10.1875 -30.109375 L -0.65625 0 L 6.421875 0 L 8.28125 -5.671875 L 19.515625 -5.671875 Z M 10.03125 -11.1875 L 13.90625 -23.125 L 17.765625 -11.1875 Z M 10.03125 -11.1875 "/></g></g></g><g fill="#fdfdfd" fill-opacity="1"><g transform="translate(243.486684, 265.104182)"><g><path d="M 24.59375 -30.109375 L 24.59375 -10.1875 L 9.78125 -30.109375 L 2.953125 -30.109375 L 2.953125 0 L 9.578125 0 L 9.578125 -19.96875 L 24.328125 0 L 31.15625 0 L 31.15625 -30.109375 Z M 24.59375 -30.109375 "/></g></g></g><path fill="#fdfdfd" d="M 239.550781 108.292969 C 239.949219 108.292969 240.285156 108.277344 240.5625 108.242188 C 240.835938 108.207031 241.070312 108.152344 241.257812 108.082031 C 241.609375 107.949219 241.851562 107.769531 241.984375 107.539062 C 242.117188 107.3125 242.1875 107.046875 242.1875 106.75 C 242.1875 106.496094 242.132812 106.269531 242.027344 106.074219 C 241.921875 105.878906 241.742188 105.722656 241.484375 105.609375 C 241.320312 105.535156 241.113281 105.480469 240.863281 105.445312 C 240.613281 105.410156 240.304688 105.390625 239.933594 105.390625 L 238.695312 105.390625 L 238.695312 108.292969 Z M 243.96875 106.785156 C 243.96875 107.445312 243.789062 108.007812 243.421875 108.46875 C 243.054688 108.929688 242.492188 109.269531 241.726562 109.492188 L 241.726562 109.519531 L 244.542969 113.414062 L 242.460938 113.414062 L 239.886719 109.746094 L 238.695312 109.746094 L 238.695312 113.414062 L 236.960938 113.414062 L 236.960938 103.941406 L 239.84375 103.941406 C 240.320312 103.941406 240.761719 103.96875 241.175781 104.019531 C 241.585938 104.074219 241.9375 104.15625 242.230469 104.265625 C 242.785156 104.476562 243.214844 104.792969 243.515625 105.210938 C 243.820312 105.628906 243.96875 106.152344 243.96875 106.785156 " fill-opacity="1" fill-rule="nonzero"/><g clip-path="url(#df2759d5ee)"><path fill="#fdfdfd" d="M 249.160156 108.664062 C 249.160156 113.539062 245.195312 117.503906 240.324219 117.503906 C 235.449219 117.503906 231.484375 113.539062 231.484375 108.664062 C 231.484375 103.792969 235.449219 99.828125 240.324219 99.828125 C 245.195312 99.828125 249.160156 103.792969 249.160156 108.664062 Z M 249.429688 104.816406 C 248.933594 103.640625 248.21875 102.582031 247.3125 101.675781 C 246.40625 100.769531 245.347656 100.054688 244.171875 99.558594 C 242.953125 99.042969 241.65625 98.78125 240.324219 98.78125 C 238.988281 98.78125 237.695312 99.042969 236.476562 99.558594 C 235.296875 100.054688 234.242188 100.769531 233.332031 101.675781 C 232.425781 102.582031 231.714844 103.640625 231.214844 104.816406 C 230.699219 106.035156 230.4375 107.332031 230.4375 108.664062 C 230.4375 110 230.699219 111.292969 231.214844 112.511719 C 231.714844 113.691406 232.425781 114.746094 233.332031 115.65625 C 234.242188 116.5625 235.296875 117.273438 236.476562 117.773438 C 237.695312 118.289062 238.988281 118.550781 240.324219 118.550781 C 241.65625 118.550781 242.953125 118.289062 244.171875 117.773438 C 245.347656 117.273438 246.40625 116.5625 247.3125 115.65625 C 248.21875 114.746094 248.933594 113.691406 249.429688 112.511719 C 249.945312 111.292969 250.207031 110 250.207031 108.664062 C 250.207031 107.332031 249.945312 106.035156 249.429688 104.816406 " fill-opacity="1" fill-rule="nonzero"/></g></svg>